<svg width="74" height="14" fill="none" xmlns="http://www.w3.org/2000/svg"><g clip-path="url('#clip0_1_661')"><g clip-path="url('#clip1_1_661')"><g clip-path="url('#clip2_1_661')"><g clip-path="url('#clip3_1_661')"><path d="M13.409 5.556c0 .104-.066.22-.196.35l-2.638 2.562.623 3.627a.696.696 0 0 1 .013.156.4.4 0 0 1-.078.247.271.271 0 0 1-.214.11.534.534 0 0 1-.293-.084l-3.263-1.716-3.25 1.716a.657.657 0 0 1-.305.09.245.245 0 0 1-.215-.116.438.438 0 0 1-.078-.247c0-.035.005-.087.013-.156l.624-3.627-2.639-2.561c-.12-.13-.182-.247-.182-.351 0-.182.135-.295.403-.338l3.64-.52 1.638-3.302c.096-.2.213-.3.351-.3.14 0 .26.1.364.3l1.625 3.302 3.64.52c.278.043.416.156.416.338Z" fill="#DDD"/></g></g><g clip-path="url('#clip4_1_661')"><g clip-path="url('#clip5_1_661')"><path d="M28.409 5.556c0 .104-.066.22-.195.35l-2.64 2.562.624 3.627a.696.696 0 0 1 .014.156.4.4 0 0 1-.078.247.271.271 0 0 1-.215.11.534.534 0 0 1-.293-.084l-3.263-1.716-3.25 1.716a.657.657 0 0 1-.305.09.245.245 0 0 1-.215-.116.438.438 0 0 1-.078-.247c0-.035.005-.087.014-.156l.623-3.627-2.639-2.561c-.12-.13-.182-.247-.182-.351 0-.182.135-.295.404-.338l3.64-.52 1.637-3.302c.096-.2.213-.3.351-.3.14 0 .26.1.364.3l1.625 3.302 3.64.52c.278.043.416.156.416.338Z" fill="#DDD"/></g></g><g clip-path="url('#clip6_1_661')"><g clip-path="url('#clip7_1_661')"><path d="M43.408 5.556c0 .104-.065.22-.194.35l-2.64 2.562.625 3.627a.696.696 0 0 1 .013.156.4.4 0 0 1-.079.247.271.271 0 0 1-.214.11.534.534 0 0 1-.292-.084l-3.264-1.716-3.25 1.716a.657.657 0 0 1-.305.09.245.245 0 0 1-.215-.116.438.438 0 0 1-.078-.247c0-.035.005-.087.014-.156l.623-3.627-2.639-2.561c-.12-.13-.182-.247-.182-.351 0-.182.135-.295.404-.338l3.64-.52 1.638-3.302c.095-.2.212-.3.35-.3.14 0 .26.1.364.3l1.626 3.302 3.64.52c.277.043.415.156.415.338Z" fill="#DDD"/></g></g><g clip-path="url('#clip8_1_661')"><g clip-path="url('#clip9_1_661')"><path d="M58.408 5.556c0 .104-.065.22-.194.35l-2.64 2.562.625 3.627a.696.696 0 0 1 .013.156.4.4 0 0 1-.079.247.271.271 0 0 1-.214.11.534.534 0 0 1-.292-.084l-3.264-1.716-3.25 1.716a.657.657 0 0 1-.305.09.245.245 0 0 1-.215-.116.438.438 0 0 1-.078-.247c0-.035.005-.087.014-.156l.623-3.627-2.639-2.561c-.12-.13-.181-.247-.181-.351 0-.182.134-.295.402-.338l3.64-.52 1.639-3.302c.095-.2.212-.3.35-.3.14 0 .26.1.364.3l1.626 3.302 3.64.52c.277.043.415.156.415.338Z" fill="#DDD"/></g></g><g clip-path="url('#clip10_1_661')"><g clip-path="url('#clip11_1_661')"><path d="M73.409 5.556c0 .104-.066.22-.196.35l-2.638 2.562.623 3.627a.696.696 0 0 1 .014.156.4.4 0 0 1-.079.247.271.271 0 0 1-.214.11.534.534 0 0 1-.293-.084l-3.263-1.716-3.25 1.716a.657.657 0 0 1-.305.09.245.245 0 0 1-.215-.116.438.438 0 0 1-.078-.247c0-.035.005-.087.014-.156l.623-3.627-2.639-2.561c-.12-.13-.181-.247-.181-.351 0-.182.134-.295.402-.338l3.64-.52 1.639-3.302c.095-.2.212-.3.35-.3.14 0 .26.1.365.3l1.625 3.302 3.64.52c.277.043.416.156.416.338Z" fill="#DDD"/></g></g></g><g clip-path="url('#clip12_1_661')"><g clip-path="url('#clip13_1_661')"><g clip-path="url('#clip14_1_661')"><g clip-path="url('#clip15_1_661')"><path d="M13.409 5.556c0 .104-.066.22-.196.35l-2.638 2.562.623 3.627a.696.696 0 0 1 .013.156.4.4 0 0 1-.078.247.271.271 0 0 1-.214.11.534.534 0 0 1-.293-.084l-3.263-1.716-3.25 1.716a.657.657 0 0 1-.305.09.245.245 0 0 1-.215-.116.438.438 0 0 1-.078-.247c0-.035.005-.087.013-.156l.624-3.627-2.639-2.561c-.12-.13-.182-.247-.182-.351 0-.182.135-.295.403-.338l3.64-.52 1.638-3.302c.096-.2.213-.3.351-.3.14 0 .26.1.364.3l1.625 3.302 3.64.52c.278.043.416.156.416.338Z" fill="#FDC346"/></g></g><g clip-path="url('#clip16_1_661')"><g clip-path="url('#clip17_1_661')"><path d="M28.409 5.556c0 .104-.066.22-.195.35l-2.64 2.562.624 3.627a.696.696 0 0 1 .014.156.4.4 0 0 1-.078.247.271.271 0 0 1-.215.11.534.534 0 0 1-.293-.084l-3.263-1.716-3.25 1.716a.657.657 0 0 1-.305.09.245.245 0 0 1-.215-.116.438.438 0 0 1-.078-.247c0-.035.005-.087.014-.156l.623-3.627-2.639-2.561c-.12-.13-.182-.247-.182-.351 0-.182.135-.295.404-.338l3.64-.52 1.637-3.302c.096-.2.213-.3.351-.3.14 0 .26.1.364.3l1.625 3.302 3.64.52c.278.043.416.156.416.338Z" fill="#FDC346"/></g></g><g clip-path="url('#clip18_1_661')"><g clip-path="url('#clip19_1_661')"><path d="M43.408 5.556c0 .104-.065.22-.194.35l-2.64 2.562.625 3.627a.696.696 0 0 1 .013.156.4.4 0 0 1-.079.247.271.271 0 0 1-.214.11.534.534 0 0 1-.292-.084l-3.264-1.716-3.25 1.716a.657.657 0 0 1-.305.09.245.245 0 0 1-.215-.116.438.438 0 0 1-.078-.247c0-.035.005-.087.014-.156l.623-3.627-2.639-2.561c-.12-.13-.182-.247-.182-.351 0-.182.135-.295.404-.338l3.64-.52 1.638-3.302c.095-.2.212-.3.35-.3.14 0 .26.1.364.3l1.626 3.302 3.64.52c.277.043.415.156.415.338Z" fill="#FDC346"/></g></g><g clip-path="url('#clip20_1_661')"><g clip-path="url('#clip21_1_661')"><path d="M58.408 5.556c0 .104-.065.22-.194.35l-2.64 2.562.625 3.627a.696.696 0 0 1 .013.156.4.4 0 0 1-.079.247.271.271 0 0 1-.214.11.534.534 0 0 1-.292-.084l-3.264-1.716-3.25 1.716a.657.657 0 0 1-.305.09.245.245 0 0 1-.215-.116.438.438 0 0 1-.078-.247c0-.035.005-.087.014-.156l.623-3.627-2.639-2.561c-.12-.13-.181-.247-.181-.351 0-.182.134-.295.402-.338l3.64-.52 1.639-3.302c.095-.2.212-.3.35-.3.14 0 .26.1.364.3l1.626 3.302 3.64.52c.277.043.415.156.415.338Z" fill="#FDC346"/></g></g><g clip-path="url('#clip22_1_661')"><g clip-path="url('#clip23_1_661')"><path d="M73.409 5.556c0 .104-.066.22-.196.35l-2.638 2.562.623 3.627a.696.696 0 0 1 .014.156.4.4 0 0 1-.079.247.271.271 0 0 1-.214.11.534.534 0 0 1-.293-.084l-3.263-1.716-3.25 1.716a.657.657 0 0 1-.305.09.245.245 0 0 1-.215-.116.438.438 0 0 1-.078-.247c0-.035.005-.087.014-.156l.623-3.627-2.639-2.561c-.12-.13-.181-.247-.181-.351 0-.182.134-.295.402-.338l3.64-.52 1.639-3.302c.095-.2.212-.3.35-.3.14 0 .26.1.365.3l1.625 3.302 3.64.52c.277.043.416.156.416.338Z" fill="#FDC346"/></g></g></g></g></g><defs><clipPath id="clip0_1_661"><path fill="#fff" transform="translate(.863 .863)" d="M0 0h73v13H0z"/></clipPath><clipPath id="clip1_1_661"><path fill="#fff" transform="translate(.863 .863)" d="M0 0h73v13H0z"/></clipPath><clipPath id="clip2_1_661"><path fill="#fff" transform="translate(.863 .863)" d="M0 0h13v13H0z"/></clipPath><clipPath id="clip3_1_661"><path fill="#fff" transform="matrix(1 0 0 -1 .863 13.863)" d="M0 0h13v13H0z"/></clipPath><clipPath id="clip4_1_661"><path fill="#fff" transform="translate(15.864 .863)" d="M0 0h13v13H0z"/></clipPath><clipPath id="clip5_1_661"><path fill="#fff" transform="matrix(1 0 0 -1 15.864 13.863)" d="M0 0h13v13H0z"/></clipPath><clipPath id="clip6_1_661"><path fill="#fff" transform="translate(30.863 .863)" d="M0 0h13v13H0z"/></clipPath><clipPath id="clip7_1_661"><path fill="#fff" transform="matrix(1 0 0 -1 30.863 13.863)" d="M0 0h13v13H0z"/></clipPath><clipPath id="clip8_1_661"><path fill="#fff" transform="translate(45.864 .863)" d="M0 0h13v13H0z"/></clipPath><clipPath id="clip9_1_661"><path fill="#fff" transform="matrix(1 0 0 -1 45.864 13.863)" d="M0 0h13v13H0z"/></clipPath><clipPath id="clip10_1_661"><path fill="#fff" transform="translate(60.864 .863)" d="M0 0h13v13H0z"/></clipPath><clipPath id="clip11_1_661"><path fill="#fff" transform="matrix(1 0 0 -1 60.864 13.863)" d="M0 0h13v13H0z"/></clipPath><clipPath id="clip12_1_661"><path fill="#fff" transform="translate(.863 .863)" d="M0 0h73v13H0z"/></clipPath><clipPath id="clip13_1_661"><path fill="#fff" transform="translate(.863 .863)" d="M0 0h73v13H0z"/></clipPath><clipPath id="clip14_1_661"><path fill="#fff" transform="translate(.863 .863)" d="M0 0h13v13H0z"/></clipPath><clipPath id="clip15_1_661"><path fill="#fff" transform="matrix(1 0 0 -1 .863 13.863)" d="M0 0h13v13H0z"/></clipPath><clipPath id="clip16_1_661"><path fill="#fff" transform="translate(15.864 .863)" d="M0 0h13v13H0z"/></clipPath><clipPath id="clip17_1_661"><path fill="#fff" transform="matrix(1 0 0 -1 15.864 13.863)" d="M0 0h13v13H0z"/></clipPath><clipPath id="clip18_1_661"><path fill="#fff" transform="translate(30.863 .863)" d="M0 0h13v13H0z"/></clipPath><clipPath id="clip19_1_661"><path fill="#fff" transform="matrix(1 0 0 -1 30.863 13.863)" d="M0 0h13v13H0z"/></clipPath><clipPath id="clip20_1_661"><path fill="#fff" transform="translate(45.864 .863)" d="M0 0h13v13H0z"/></clipPath><clipPath id="clip21_1_661"><path fill="#fff" transform="matrix(1 0 0 -1 45.864 13.863)" d="M0 0h13v13H0z"/></clipPath><clipPath id="clip22_1_661"><path fill="#fff" transform="translate(60.864 .863)" d="M0 0h13v13H0z"/></clipPath><clipPath id="clip23_1_661"><path fill="#fff" transform="matrix(1 0 0 -1 60.864 13.863)" d="M0 0h13v13H0z"/></clipPath></defs></svg>