<svg width="74" height="14" fill="none" xmlns="http://www.w3.org/2000/svg"><g clip-path="url('#clip0_1_72')"><g clip-path="url('#clip1_1_72')"><g clip-path="url('#clip2_1_72')"><g clip-path="url('#clip3_1_72')"><path d="M13.125 5.673c0 .104-.065.221-.195.351l-2.64 2.561.625 3.627a.691.691 0 0 1 .013.156.4.4 0 0 1-.078.247.27.27 0 0 1-.215.11.533.533 0 0 1-.292-.084L7.08 10.925l-3.25 1.716a.656.656 0 0 1-.306.091.245.245 0 0 1-.214-.117.438.438 0 0 1-.078-.247c0-.035.004-.087.013-.156l.624-3.627-2.64-2.561c-.12-.13-.181-.247-.181-.351 0-.182.134-.295.403-.338l3.64-.52 1.638-3.302c.095-.2.212-.299.35-.299.14 0 .26.1.365.299l1.625 3.302 3.64.52c.277.043.416.156.416.338Z" fill="#DDD"/></g></g><g clip-path="url('#clip4_1_72')"><g clip-path="url('#clip5_1_72')"><path d="M28.125 5.673c0 .104-.065.221-.195.351l-2.64 2.561.625 3.627a.691.691 0 0 1 .013.156.4.4 0 0 1-.078.247.27.27 0 0 1-.215.11.533.533 0 0 1-.292-.084l-3.263-1.716-3.25 1.716a.656.656 0 0 1-.306.091.245.245 0 0 1-.214-.117.438.438 0 0 1-.078-.247c0-.035.004-.087.013-.156l.624-3.627-2.64-2.561c-.12-.13-.181-.247-.181-.351 0-.182.134-.295.403-.338l3.64-.52 1.638-3.302c.095-.2.212-.299.35-.299.14 0 .26.1.365.299l1.625 3.302 3.64.52c.277.043.416.156.416.338Z" fill="#DDD"/></g></g><g clip-path="url('#clip6_1_72')"><g clip-path="url('#clip7_1_72')"><path d="M43.125 5.673c0 .104-.065.221-.195.351l-2.64 2.561.625 3.627a.691.691 0 0 1 .013.156.4.4 0 0 1-.078.247.27.27 0 0 1-.215.11.533.533 0 0 1-.292-.084l-3.263-1.716-3.25 1.716a.656.656 0 0 1-.306.091.245.245 0 0 1-.214-.117.438.438 0 0 1-.078-.247c0-.035.004-.087.013-.156l.624-3.627-2.64-2.561c-.12-.13-.181-.247-.181-.351 0-.182.134-.295.403-.338l3.64-.52 1.638-3.302c.095-.2.212-.299.35-.299.14 0 .26.1.365.299l1.625 3.302 3.64.52c.277.043.416.156.416.338Z" fill="#DDD"/></g></g><g clip-path="url('#clip8_1_72')"><g clip-path="url('#clip9_1_72')"><path d="M58.125 5.673c0 .104-.065.221-.195.351l-2.64 2.561.625 3.627a.691.691 0 0 1 .013.156.4.4 0 0 1-.078.247.27.27 0 0 1-.215.11.533.533 0 0 1-.292-.084l-3.263-1.716-3.25 1.716a.656.656 0 0 1-.306.091.245.245 0 0 1-.214-.117.438.438 0 0 1-.078-.247c0-.035.004-.087.013-.156l.624-3.627-2.64-2.561c-.12-.13-.181-.247-.181-.351 0-.182.134-.295.403-.338l3.64-.52 1.638-3.302c.095-.2.212-.299.35-.299.14 0 .26.1.365.299l1.625 3.302 3.64.52c.277.043.416.156.416.338Z" fill="#DDD"/></g></g><g clip-path="url('#clip10_1_72')"><g clip-path="url('#clip11_1_72')"><path d="M73.125 5.673c0 .104-.065.221-.195.351l-2.64 2.561.625 3.627a.691.691 0 0 1 .013.156.4.4 0 0 1-.078.247.27.27 0 0 1-.215.11.533.533 0 0 1-.292-.084l-3.263-1.716-3.25 1.716a.656.656 0 0 1-.306.091.245.245 0 0 1-.214-.117.438.438 0 0 1-.078-.247c0-.035.004-.087.013-.156l.624-3.627-2.64-2.561c-.12-.13-.181-.247-.181-.351 0-.182.134-.295.403-.338l3.64-.52 1.638-3.302c.095-.2.212-.299.35-.299.14 0 .26.1.365.299l1.625 3.302 3.64.52c.277.043.416.156.416.338Z" fill="#DDD"/></g></g></g><g clip-path="url('#clip12_1_72')"><g clip-path="url('#clip13_1_72')"><g clip-path="url('#clip14_1_72')"><g clip-path="url('#clip15_1_72')"><path d="M13.125 5.673c0 .104-.065.221-.195.351l-2.64 2.561.625 3.627a.691.691 0 0 1 .013.156.4.4 0 0 1-.078.247.27.27 0 0 1-.215.11.533.533 0 0 1-.292-.084L7.08 10.925l-3.25 1.716a.656.656 0 0 1-.306.091.245.245 0 0 1-.214-.117.438.438 0 0 1-.078-.247c0-.035.004-.087.013-.156l.624-3.627-2.64-2.561c-.12-.13-.181-.247-.181-.351 0-.182.134-.295.403-.338l3.64-.52 1.638-3.302c.095-.2.212-.299.35-.299.14 0 .26.1.365.299l1.625 3.302 3.64.52c.277.043.416.156.416.338Z" fill="#FDC346"/></g></g><g clip-path="url('#clip16_1_72')"><g clip-path="url('#clip17_1_72')"><path d="M28.125 5.673c0 .104-.065.221-.195.351l-2.64 2.561.625 3.627a.691.691 0 0 1 .013.156.4.4 0 0 1-.078.247.27.27 0 0 1-.215.11.533.533 0 0 1-.292-.084l-3.263-1.716-3.25 1.716a.656.656 0 0 1-.306.091.245.245 0 0 1-.214-.117.438.438 0 0 1-.078-.247c0-.035.004-.087.013-.156l.624-3.627-2.64-2.561c-.12-.13-.181-.247-.181-.351 0-.182.134-.295.403-.338l3.64-.52 1.638-3.302c.095-.2.212-.299.35-.299.14 0 .26.1.365.299l1.625 3.302 3.64.52c.277.043.416.156.416.338Z" fill="#FDC346"/></g></g><g clip-path="url('#clip18_1_72')"><g clip-path="url('#clip19_1_72')"><path d="M43.125 5.673c0 .104-.065.221-.195.351l-2.64 2.561.625 3.627a.691.691 0 0 1 .013.156.4.4 0 0 1-.078.247.27.27 0 0 1-.215.11.533.533 0 0 1-.292-.084l-3.263-1.716-3.25 1.716a.656.656 0 0 1-.306.091.245.245 0 0 1-.214-.117.438.438 0 0 1-.078-.247c0-.035.004-.087.013-.156l.624-3.627-2.64-2.561c-.12-.13-.181-.247-.181-.351 0-.182.134-.295.403-.338l3.64-.52 1.638-3.302c.095-.2.212-.299.35-.299.14 0 .26.1.365.299l1.625 3.302 3.64.52c.277.043.416.156.416.338Z" fill="#FDC346"/></g></g><g clip-path="url('#clip20_1_72')"><g clip-path="url('#clip21_1_72')"><path d="M58.125 5.673c0 .104-.065.221-.195.351l-2.64 2.561.625 3.627a.691.691 0 0 1 .013.156.4.4 0 0 1-.078.247.27.27 0 0 1-.215.11.533.533 0 0 1-.292-.084l-3.263-1.716-3.25 1.716a.656.656 0 0 1-.306.091.245.245 0 0 1-.214-.117.438.438 0 0 1-.078-.247c0-.035.004-.087.013-.156l.624-3.627-2.64-2.561c-.12-.13-.181-.247-.181-.351 0-.182.134-.295.403-.338l3.64-.52 1.638-3.302c.095-.2.212-.299.35-.299.14 0 .26.1.365.299l1.625 3.302 3.64.52c.277.043.416.156.416.338Z" fill="#FDC346"/></g></g></g></g></g><defs><clipPath id="clip0_1_72"><path fill="#fff" transform="translate(.58 .98)" d="M0 0h73v13H0z"/></clipPath><clipPath id="clip1_1_72"><path fill="#fff" transform="translate(.58 .98)" d="M0 0h73v13H0z"/></clipPath><clipPath id="clip2_1_72"><path fill="#fff" transform="translate(.58 .98)" d="M0 0h13v13H0z"/></clipPath><clipPath id="clip3_1_72"><path fill="#fff" transform="matrix(1 0 0 -1 .58 13.98)" d="M0 0h13v13H0z"/></clipPath><clipPath id="clip4_1_72"><path fill="#fff" transform="translate(15.58 .98)" d="M0 0h13v13H0z"/></clipPath><clipPath id="clip5_1_72"><path fill="#fff" transform="matrix(1 0 0 -1 15.58 13.98)" d="M0 0h13v13H0z"/></clipPath><clipPath id="clip6_1_72"><path fill="#fff" transform="translate(30.58 .98)" d="M0 0h13v13H0z"/></clipPath><clipPath id="clip7_1_72"><path fill="#fff" transform="matrix(1 0 0 -1 30.58 13.98)" d="M0 0h13v13H0z"/></clipPath><clipPath id="clip8_1_72"><path fill="#fff" transform="translate(45.58 .98)" d="M0 0h13v13H0z"/></clipPath><clipPath id="clip9_1_72"><path fill="#fff" transform="matrix(1 0 0 -1 45.58 13.98)" d="M0 0h13v13H0z"/></clipPath><clipPath id="clip10_1_72"><path fill="#fff" transform="translate(60.58 .98)" d="M0 0h13v13H0z"/></clipPath><clipPath id="clip11_1_72"><path fill="#fff" transform="matrix(1 0 0 -1 60.58 13.98)" d="M0 0h13v13H0z"/></clipPath><clipPath id="clip12_1_72"><path fill="#fff" transform="translate(.58 .98)" d="M0 0h58.39v13H0z"/></clipPath><clipPath id="clip13_1_72"><path fill="#fff" transform="translate(.58 .98)" d="M0 0h73v13H0z"/></clipPath><clipPath id="clip14_1_72"><path fill="#fff" transform="translate(.58 .98)" d="M0 0h13v13H0z"/></clipPath><clipPath id="clip15_1_72"><path fill="#fff" transform="matrix(1 0 0 -1 .58 13.98)" d="M0 0h13v13H0z"/></clipPath><clipPath id="clip16_1_72"><path fill="#fff" transform="translate(15.58 .98)" d="M0 0h13v13H0z"/></clipPath><clipPath id="clip17_1_72"><path fill="#fff" transform="matrix(1 0 0 -1 15.58 13.98)" d="M0 0h13v13H0z"/></clipPath><clipPath id="clip18_1_72"><path fill="#fff" transform="translate(30.58 .98)" d="M0 0h13v13H0z"/></clipPath><clipPath id="clip19_1_72"><path fill="#fff" transform="matrix(1 0 0 -1 30.58 13.98)" d="M0 0h13v13H0z"/></clipPath><clipPath id="clip20_1_72"><path fill="#fff" transform="translate(45.58 .98)" d="M0 0h13v13H0z"/></clipPath><clipPath id="clip21_1_72"><path fill="#fff" transform="matrix(1 0 0 -1 45.58 13.98)" d="M0 0h13v13H0z"/></clipPath></defs></svg>