<svg width="74" height="14" fill="none" xmlns="http://www.w3.org/2000/svg"><g clip-path="url('#clip0_1_711')"><g clip-path="url('#clip1_1_711')"><g clip-path="url('#clip2_1_711')"><g clip-path="url('#clip3_1_711')"><path d="M13.525 5.243c0 .104-.065.221-.195.351l-2.64 2.561.625 3.627a.69.69 0 0 1 .013.156.4.4 0 0 1-.078.247.271.271 0 0 1-.215.11.534.534 0 0 1-.292-.084L7.48 10.495l-3.25 1.716a.657.657 0 0 1-.306.091.245.245 0 0 1-.214-.117.438.438 0 0 1-.078-.247c0-.035.004-.087.013-.156l.624-3.627-2.64-2.56c-.12-.13-.181-.248-.181-.352 0-.182.134-.295.403-.338l3.64-.52 1.638-3.302c.095-.2.212-.299.35-.299.14 0 .26.1.365.3l1.625 3.301 3.64.52c.277.043.416.156.416.338Z" fill="#DDD"/></g></g><g clip-path="url('#clip4_1_711')"><g clip-path="url('#clip5_1_711')"><path d="M28.525 5.243c0 .104-.065.221-.195.351l-2.64 2.561.625 3.627a.69.69 0 0 1 .013.156.4.4 0 0 1-.078.247.271.271 0 0 1-.215.11.534.534 0 0 1-.292-.084l-3.263-1.716-3.25 1.716a.657.657 0 0 1-.306.091.245.245 0 0 1-.214-.117.438.438 0 0 1-.078-.247c0-.035.004-.087.013-.156l.624-3.627-2.64-2.56c-.12-.13-.181-.248-.181-.352 0-.182.134-.295.403-.338l3.64-.52 1.638-3.302c.095-.2.212-.299.35-.299.14 0 .26.1.365.3l1.625 3.301 3.64.52c.277.043.416.156.416.338Z" fill="#DDD"/></g></g><g clip-path="url('#clip6_1_711')"><g clip-path="url('#clip7_1_711')"><path d="M43.525 5.243c0 .104-.065.221-.195.351l-2.64 2.561.625 3.627a.69.69 0 0 1 .013.156.4.4 0 0 1-.078.247.271.271 0 0 1-.215.11.534.534 0 0 1-.292-.084l-3.263-1.716-3.25 1.716a.657.657 0 0 1-.306.091.245.245 0 0 1-.214-.117.438.438 0 0 1-.078-.247c0-.035.004-.087.013-.156l.624-3.627-2.64-2.56c-.12-.13-.181-.248-.181-.352 0-.182.134-.295.403-.338l3.64-.52 1.638-3.302c.095-.2.212-.299.35-.299.14 0 .26.1.365.3l1.625 3.301 3.64.52c.277.043.416.156.416.338Z" fill="#DDD"/></g></g><g clip-path="url('#clip8_1_711')"><g clip-path="url('#clip9_1_711')"><path d="M58.525 5.243c0 .104-.065.221-.195.351l-2.64 2.561.625 3.627a.69.69 0 0 1 .013.156.4.4 0 0 1-.078.247.271.271 0 0 1-.215.11.534.534 0 0 1-.292-.084l-3.263-1.716-3.25 1.716a.657.657 0 0 1-.306.091.245.245 0 0 1-.214-.117.438.438 0 0 1-.078-.247c0-.035.004-.087.013-.156l.624-3.627-2.64-2.56c-.12-.13-.181-.248-.181-.352 0-.182.134-.295.403-.338l3.64-.52 1.638-3.302c.095-.2.212-.299.35-.299.14 0 .26.1.365.3l1.625 3.301 3.64.52c.277.043.416.156.416.338Z" fill="#DDD"/></g></g><g clip-path="url('#clip10_1_711')"><g clip-path="url('#clip11_1_711')"><path d="M73.525 5.243c0 .104-.065.221-.195.351l-2.64 2.561.625 3.627a.69.69 0 0 1 .013.156.4.4 0 0 1-.078.247.271.271 0 0 1-.215.11.534.534 0 0 1-.292-.084l-3.263-1.716-3.25 1.716a.657.657 0 0 1-.306.091.245.245 0 0 1-.214-.117.438.438 0 0 1-.078-.247c0-.035.004-.087.013-.156l.624-3.627-2.64-2.56c-.12-.13-.181-.248-.181-.352 0-.182.134-.295.403-.338l3.64-.52 1.638-3.302c.095-.2.212-.299.35-.299.14 0 .26.1.365.3l1.625 3.301 3.64.52c.277.043.416.156.416.338Z" fill="#DDD"/></g></g></g><g clip-path="url('#clip12_1_711')"><g clip-path="url('#clip13_1_711')"><g clip-path="url('#clip14_1_711')"><g clip-path="url('#clip15_1_711')"><path d="M13.525 5.243c0 .104-.065.221-.195.351l-2.64 2.561.625 3.627a.69.69 0 0 1 .013.156.4.4 0 0 1-.078.247.271.271 0 0 1-.215.11.534.534 0 0 1-.292-.084L7.48 10.495l-3.25 1.716a.657.657 0 0 1-.306.091.245.245 0 0 1-.214-.117.438.438 0 0 1-.078-.247c0-.035.004-.087.013-.156l.624-3.627-2.64-2.56c-.12-.13-.181-.248-.181-.352 0-.182.134-.295.403-.338l3.64-.52 1.638-3.302c.095-.2.212-.299.35-.299.14 0 .26.1.365.3l1.625 3.301 3.64.52c.277.043.416.156.416.338Z" fill="#FDC346"/></g></g><g clip-path="url('#clip16_1_711')"><g clip-path="url('#clip17_1_711')"><path d="M28.525 5.243c0 .104-.065.221-.195.351l-2.64 2.561.625 3.627a.69.69 0 0 1 .013.156.4.4 0 0 1-.078.247.271.271 0 0 1-.215.11.534.534 0 0 1-.292-.084l-3.263-1.716-3.25 1.716a.657.657 0 0 1-.306.091.245.245 0 0 1-.214-.117.438.438 0 0 1-.078-.247c0-.035.004-.087.013-.156l.624-3.627-2.64-2.56c-.12-.13-.181-.248-.181-.352 0-.182.134-.295.403-.338l3.64-.52 1.638-3.302c.095-.2.212-.299.35-.299.14 0 .26.1.365.3l1.625 3.301 3.64.52c.277.043.416.156.416.338Z" fill="#FDC346"/></g></g><g clip-path="url('#clip18_1_711')"><g clip-path="url('#clip19_1_711')"><path d="M43.525 5.243c0 .104-.065.221-.195.351l-2.64 2.561.625 3.627a.69.69 0 0 1 .013.156.4.4 0 0 1-.078.247.271.271 0 0 1-.215.11.534.534 0 0 1-.292-.084l-3.263-1.716-3.25 1.716a.657.657 0 0 1-.306.091.245.245 0 0 1-.214-.117.438.438 0 0 1-.078-.247c0-.035.004-.087.013-.156l.624-3.627-2.64-2.56c-.12-.13-.181-.248-.181-.352 0-.182.134-.295.403-.338l3.64-.52 1.638-3.302c.095-.2.212-.299.35-.299.14 0 .26.1.365.3l1.625 3.301 3.64.52c.277.043.416.156.416.338Z" fill="#FDC346"/></g></g><g clip-path="url('#clip20_1_711')"><g clip-path="url('#clip21_1_711')"><path d="M58.525 5.243c0 .104-.065.221-.195.351l-2.64 2.561.625 3.627a.69.69 0 0 1 .013.156.4.4 0 0 1-.078.247.271.271 0 0 1-.215.11.534.534 0 0 1-.292-.084l-3.263-1.716-3.25 1.716a.657.657 0 0 1-.306.091.245.245 0 0 1-.214-.117.438.438 0 0 1-.078-.247c0-.035.004-.087.013-.156l.624-3.627-2.64-2.56c-.12-.13-.181-.248-.181-.352 0-.182.134-.295.403-.338l3.64-.52 1.638-3.302c.095-.2.212-.299.35-.299.14 0 .26.1.365.3l1.625 3.301 3.64.52c.277.043.416.156.416.338Z" fill="#FDC346"/></g></g><g clip-path="url('#clip22_1_711')"><g clip-path="url('#clip23_1_711')"><path d="M73.525 5.243c0 .104-.065.221-.195.351l-2.64 2.561.625 3.627a.69.69 0 0 1 .013.156.4.4 0 0 1-.078.247.271.271 0 0 1-.215.11.534.534 0 0 1-.292-.084l-3.263-1.716-3.25 1.716a.657.657 0 0 1-.306.091.245.245 0 0 1-.214-.117.438.438 0 0 1-.078-.247c0-.035.004-.087.013-.156l.624-3.627-2.64-2.56c-.12-.13-.181-.248-.181-.352 0-.182.134-.295.403-.338l3.64-.52 1.638-3.302c.095-.2.212-.299.35-.299.14 0 .26.1.365.3l1.625 3.301 3.64.52c.277.043.416.156.416.338Z" fill="#FDC346"/></g></g></g></g></g><defs><clipPath id="clip0_1_711"><path fill="#fff" transform="translate(.98 .55)" d="M0 0h73v13H0z"/></clipPath><clipPath id="clip1_1_711"><path fill="#fff" transform="translate(.98 .55)" d="M0 0h73v13H0z"/></clipPath><clipPath id="clip2_1_711"><path fill="#fff" transform="translate(.98 .55)" d="M0 0h13v13H0z"/></clipPath><clipPath id="clip3_1_711"><path fill="#fff" transform="matrix(1 0 0 -1 .98 13.55)" d="M0 0h13v13H0z"/></clipPath><clipPath id="clip4_1_711"><path fill="#fff" transform="translate(15.98 .55)" d="M0 0h13v13H0z"/></clipPath><clipPath id="clip5_1_711"><path fill="#fff" transform="matrix(1 0 0 -1 15.98 13.55)" d="M0 0h13v13H0z"/></clipPath><clipPath id="clip6_1_711"><path fill="#fff" transform="translate(30.98 .55)" d="M0 0h13v13H0z"/></clipPath><clipPath id="clip7_1_711"><path fill="#fff" transform="matrix(1 0 0 -1 30.98 13.55)" d="M0 0h13v13H0z"/></clipPath><clipPath id="clip8_1_711"><path fill="#fff" transform="translate(45.98 .55)" d="M0 0h13v13H0z"/></clipPath><clipPath id="clip9_1_711"><path fill="#fff" transform="matrix(1 0 0 -1 45.98 13.55)" d="M0 0h13v13H0z"/></clipPath><clipPath id="clip10_1_711"><path fill="#fff" transform="translate(60.98 .55)" d="M0 0h13v13H0z"/></clipPath><clipPath id="clip11_1_711"><path fill="#fff" transform="matrix(1 0 0 -1 60.98 13.55)" d="M0 0h13v13H0z"/></clipPath><clipPath id="clip12_1_711"><path fill="#fff" transform="translate(.98 .55)" d="M0 0h73v13H0z"/></clipPath><clipPath id="clip13_1_711"><path fill="#fff" transform="translate(.98 .55)" d="M0 0h73v13H0z"/></clipPath><clipPath id="clip14_1_711"><path fill="#fff" transform="translate(.98 .55)" d="M0 0h13v13H0z"/></clipPath><clipPath id="clip15_1_711"><path fill="#fff" transform="matrix(1 0 0 -1 .98 13.55)" d="M0 0h13v13H0z"/></clipPath><clipPath id="clip16_1_711"><path fill="#fff" transform="translate(15.98 .55)" d="M0 0h13v13H0z"/></clipPath><clipPath id="clip17_1_711"><path fill="#fff" transform="matrix(1 0 0 -1 15.98 13.55)" d="M0 0h13v13H0z"/></clipPath><clipPath id="clip18_1_711"><path fill="#fff" transform="translate(30.98 .55)" d="M0 0h13v13H0z"/></clipPath><clipPath id="clip19_1_711"><path fill="#fff" transform="matrix(1 0 0 -1 30.98 13.55)" d="M0 0h13v13H0z"/></clipPath><clipPath id="clip20_1_711"><path fill="#fff" transform="translate(45.98 .55)" d="M0 0h13v13H0z"/></clipPath><clipPath id="clip21_1_711"><path fill="#fff" transform="matrix(1 0 0 -1 45.98 13.55)" d="M0 0h13v13H0z"/></clipPath><clipPath id="clip22_1_711"><path fill="#fff" transform="translate(60.98 .55)" d="M0 0h13v13H0z"/></clipPath><clipPath id="clip23_1_711"><path fill="#fff" transform="matrix(1 0 0 -1 60.98 13.55)" d="M0 0h13v13H0z"/></clipPath></defs></svg>