<svg width="74" height="14" fill="none" xmlns="http://www.w3.org/2000/svg"><g clip-path="url('#clip0_1_516')"><g clip-path="url('#clip1_1_516')"><g clip-path="url('#clip2_1_516')"><g clip-path="url('#clip3_1_516')"><path d="M13.295 5.323c0 .104-.065.221-.195.351l-2.639 2.561.624 3.627a.69.69 0 0 1 .013.156.4.4 0 0 1-.078.247.271.271 0 0 1-.214.11.534.534 0 0 1-.293-.084L7.25 10.575 4 12.291a.657.657 0 0 1-.305.091.245.245 0 0 1-.215-.117.438.438 0 0 1-.078-.247c0-.035.004-.087.013-.156l.624-3.627L1.4 5.674c-.121-.13-.182-.247-.182-.351 0-.182.134-.295.403-.338l3.64-.52 1.638-3.302c.095-.2.212-.299.351-.299.139 0 .26.1.364.299l1.625 3.302 3.64.52c.277.043.416.156.416.338Z" fill="#DDD"/></g></g><g clip-path="url('#clip4_1_516')"><g clip-path="url('#clip5_1_516')"><path d="M28.295 5.323c0 .104-.065.221-.195.351l-2.639 2.561.624 3.627a.69.69 0 0 1 .013.156.4.4 0 0 1-.078.247.271.271 0 0 1-.215.11.534.534 0 0 1-.292-.084l-3.263-1.716L19 12.291a.657.657 0 0 1-.305.091.245.245 0 0 1-.215-.117.438.438 0 0 1-.078-.247c0-.035.004-.087.013-.156l.624-3.627L16.4 5.674c-.121-.13-.182-.247-.182-.351 0-.182.134-.295.403-.338l3.64-.52 1.638-3.302c.095-.2.212-.299.351-.299.139 0 .26.1.364.299l1.625 3.302 3.64.52c.277.043.416.156.416.338Z" fill="#DDD"/></g></g><g clip-path="url('#clip6_1_516')"><g clip-path="url('#clip7_1_516')"><path d="M43.295 5.323c0 .104-.065.221-.195.351l-2.639 2.561.624 3.627a.69.69 0 0 1 .013.156.4.4 0 0 1-.078.247.271.271 0 0 1-.215.11.534.534 0 0 1-.292-.084l-3.263-1.716L34 12.291a.657.657 0 0 1-.306.091.245.245 0 0 1-.214-.117.438.438 0 0 1-.078-.247c0-.035.004-.087.013-.156l.624-3.627L31.4 5.674c-.121-.13-.182-.247-.182-.351 0-.182.134-.295.403-.338l3.64-.52 1.638-3.302c.095-.2.212-.299.351-.299.139 0 .26.1.364.299l1.625 3.302 3.64.52c.277.043.416.156.416.338Z" fill="#DDD"/></g></g><g clip-path="url('#clip8_1_516')"><g clip-path="url('#clip9_1_516')"><path d="M58.295 5.323c0 .104-.065.221-.195.351l-2.639 2.561.624 3.627a.69.69 0 0 1 .013.156.4.4 0 0 1-.078.247.271.271 0 0 1-.215.11.534.534 0 0 1-.292-.084l-3.263-1.716L49 12.291a.657.657 0 0 1-.306.091.245.245 0 0 1-.214-.117.438.438 0 0 1-.078-.247c0-.035.004-.087.013-.156l.624-3.627L46.4 5.674c-.121-.13-.182-.247-.182-.351 0-.182.134-.295.403-.338l3.64-.52 1.638-3.302c.095-.2.212-.299.351-.299.139 0 .26.1.364.299l1.625 3.302 3.64.52c.277.043.416.156.416.338Z" fill="#DDD"/></g></g><g clip-path="url('#clip10_1_516')"><g clip-path="url('#clip11_1_516')"><path d="M73.295 5.323c0 .104-.065.221-.195.351l-2.639 2.561.624 3.627a.69.69 0 0 1 .013.156.4.4 0 0 1-.078.247.271.271 0 0 1-.215.11.534.534 0 0 1-.292-.084l-3.263-1.716L64 12.291a.657.657 0 0 1-.306.091.245.245 0 0 1-.214-.117.438.438 0 0 1-.078-.247c0-.035.004-.087.013-.156l.624-3.627L61.4 5.674c-.121-.13-.182-.247-.182-.351 0-.182.134-.295.403-.338l3.64-.52 1.638-3.302c.095-.2.212-.299.351-.299.139 0 .26.1.364.299l1.625 3.302 3.64.52c.277.043.416.156.416.338Z" fill="#DDD"/></g></g></g><g clip-path="url('#clip12_1_516')"><g clip-path="url('#clip13_1_516')"><g clip-path="url('#clip14_1_516')"><g clip-path="url('#clip15_1_516')"><path d="M13.295 5.323c0 .104-.065.221-.195.351l-2.639 2.561.624 3.627a.69.69 0 0 1 .013.156.4.4 0 0 1-.078.247.271.271 0 0 1-.214.11.534.534 0 0 1-.293-.084L7.25 10.575 4 12.291a.657.657 0 0 1-.305.091.245.245 0 0 1-.215-.117.438.438 0 0 1-.078-.247c0-.035.004-.087.013-.156l.624-3.627L1.4 5.674c-.121-.13-.182-.247-.182-.351 0-.182.134-.295.403-.338l3.64-.52 1.638-3.302c.095-.2.212-.299.351-.299.139 0 .26.1.364.299l1.625 3.302 3.64.52c.277.043.416.156.416.338Z" fill="#FDC346"/></g></g><g clip-path="url('#clip16_1_516')"><g clip-path="url('#clip17_1_516')"><path d="M28.295 5.323c0 .104-.065.221-.195.351l-2.639 2.561.624 3.627a.69.69 0 0 1 .013.156.4.4 0 0 1-.078.247.271.271 0 0 1-.215.11.534.534 0 0 1-.292-.084l-3.263-1.716L19 12.291a.657.657 0 0 1-.305.091.245.245 0 0 1-.215-.117.438.438 0 0 1-.078-.247c0-.035.004-.087.013-.156l.624-3.627L16.4 5.674c-.121-.13-.182-.247-.182-.351 0-.182.134-.295.403-.338l3.64-.52 1.638-3.302c.095-.2.212-.299.351-.299.139 0 .26.1.364.299l1.625 3.302 3.64.52c.277.043.416.156.416.338Z" fill="#FDC346"/></g></g><g clip-path="url('#clip18_1_516')"><g clip-path="url('#clip19_1_516')"><path d="M43.295 5.323c0 .104-.065.221-.195.351l-2.639 2.561.624 3.627a.69.69 0 0 1 .013.156.4.4 0 0 1-.078.247.271.271 0 0 1-.215.11.534.534 0 0 1-.292-.084l-3.263-1.716L34 12.291a.657.657 0 0 1-.306.091.245.245 0 0 1-.214-.117.438.438 0 0 1-.078-.247c0-.035.004-.087.013-.156l.624-3.627L31.4 5.674c-.121-.13-.182-.247-.182-.351 0-.182.134-.295.403-.338l3.64-.52 1.638-3.302c.095-.2.212-.299.351-.299.139 0 .26.1.364.299l1.625 3.302 3.64.52c.277.043.416.156.416.338Z" fill="#FDC346"/></g></g><g clip-path="url('#clip20_1_516')"><g clip-path="url('#clip21_1_516')"><path d="M58.295 5.323c0 .104-.065.221-.195.351l-2.639 2.561.624 3.627a.69.69 0 0 1 .013.156.4.4 0 0 1-.078.247.271.271 0 0 1-.215.11.534.534 0 0 1-.292-.084l-3.263-1.716L49 12.291a.657.657 0 0 1-.306.091.245.245 0 0 1-.214-.117.438.438 0 0 1-.078-.247c0-.035.004-.087.013-.156l.624-3.627L46.4 5.674c-.121-.13-.182-.247-.182-.351 0-.182.134-.295.403-.338l3.64-.52 1.638-3.302c.095-.2.212-.299.351-.299.139 0 .26.1.364.299l1.625 3.302 3.64.52c.277.043.416.156.416.338Z" fill="#FDC346"/></g></g><g clip-path="url('#clip22_1_516')"><g clip-path="url('#clip23_1_516')"><path d="M73.295 5.323c0 .104-.065.221-.195.351l-2.639 2.561.624 3.627a.69.69 0 0 1 .013.156.4.4 0 0 1-.078.247.271.271 0 0 1-.215.11.534.534 0 0 1-.292-.084l-3.263-1.716L64 12.291a.657.657 0 0 1-.306.091.245.245 0 0 1-.214-.117.438.438 0 0 1-.078-.247c0-.035.004-.087.013-.156l.624-3.627L61.4 5.674c-.121-.13-.182-.247-.182-.351 0-.182.134-.295.403-.338l3.64-.52 1.638-3.302c.095-.2.212-.299.351-.299.139 0 .26.1.364.299l1.625 3.302 3.64.52c.277.043.416.156.416.338Z" fill="#FDC346"/></g></g></g></g></g><defs><clipPath id="clip0_1_516"><path fill="#fff" transform="translate(.75 .63)" d="M0 0h73v13H0z"/></clipPath><clipPath id="clip1_1_516"><path fill="#fff" transform="translate(.75 .63)" d="M0 0h73v13H0z"/></clipPath><clipPath id="clip2_1_516"><path fill="#fff" transform="translate(.75 .63)" d="M0 0h13v13H0z"/></clipPath><clipPath id="clip3_1_516"><path fill="#fff" transform="matrix(1 0 0 -1 .75 13.63)" d="M0 0h13v13H0z"/></clipPath><clipPath id="clip4_1_516"><path fill="#fff" transform="translate(15.75 .63)" d="M0 0h13v13H0z"/></clipPath><clipPath id="clip5_1_516"><path fill="#fff" transform="matrix(1 0 0 -1 15.75 13.63)" d="M0 0h13v13H0z"/></clipPath><clipPath id="clip6_1_516"><path fill="#fff" transform="translate(30.75 .63)" d="M0 0h13v13H0z"/></clipPath><clipPath id="clip7_1_516"><path fill="#fff" transform="matrix(1 0 0 -1 30.75 13.63)" d="M0 0h13v13H0z"/></clipPath><clipPath id="clip8_1_516"><path fill="#fff" transform="translate(45.75 .63)" d="M0 0h13v13H0z"/></clipPath><clipPath id="clip9_1_516"><path fill="#fff" transform="matrix(1 0 0 -1 45.75 13.63)" d="M0 0h13v13H0z"/></clipPath><clipPath id="clip10_1_516"><path fill="#fff" transform="translate(60.75 .63)" d="M0 0h13v13H0z"/></clipPath><clipPath id="clip11_1_516"><path fill="#fff" transform="matrix(1 0 0 -1 60.75 13.63)" d="M0 0h13v13H0z"/></clipPath><clipPath id="clip12_1_516"><path fill="#fff" transform="translate(.75 .63)" d="M0 0h73v13H0z"/></clipPath><clipPath id="clip13_1_516"><path fill="#fff" transform="translate(.75 .63)" d="M0 0h73v13H0z"/></clipPath><clipPath id="clip14_1_516"><path fill="#fff" transform="translate(.75 .63)" d="M0 0h13v13H0z"/></clipPath><clipPath id="clip15_1_516"><path fill="#fff" transform="matrix(1 0 0 -1 .75 13.63)" d="M0 0h13v13H0z"/></clipPath><clipPath id="clip16_1_516"><path fill="#fff" transform="translate(15.75 .63)" d="M0 0h13v13H0z"/></clipPath><clipPath id="clip17_1_516"><path fill="#fff" transform="matrix(1 0 0 -1 15.75 13.63)" d="M0 0h13v13H0z"/></clipPath><clipPath id="clip18_1_516"><path fill="#fff" transform="translate(30.75 .63)" d="M0 0h13v13H0z"/></clipPath><clipPath id="clip19_1_516"><path fill="#fff" transform="matrix(1 0 0 -1 30.75 13.63)" d="M0 0h13v13H0z"/></clipPath><clipPath id="clip20_1_516"><path fill="#fff" transform="translate(45.75 .63)" d="M0 0h13v13H0z"/></clipPath><clipPath id="clip21_1_516"><path fill="#fff" transform="matrix(1 0 0 -1 45.75 13.63)" d="M0 0h13v13H0z"/></clipPath><clipPath id="clip22_1_516"><path fill="#fff" transform="translate(60.75 .63)" d="M0 0h13v13H0z"/></clipPath><clipPath id="clip23_1_516"><path fill="#fff" transform="matrix(1 0 0 -1 60.75 13.63)" d="M0 0h13v13H0z"/></clipPath></defs></svg>