<svg width="42" height="46" fill="none" xmlns="http://www.w3.org/2000/svg"><g clip-path="url('#clip0_1_1089')"><path d="M14.685 21.46c0-1.03-.37-1.91-1.11-2.64-.74-.73-1.62-1.1-2.64-1.11-1.02-.01-1.905.36-2.655 1.11-.75.75-1.115 1.63-1.095 2.64.02 1.01.385 1.895 1.095 2.655.71.76 1.595 1.125 2.655 1.095 1.06-.03 1.94-.395 2.64-1.095.7-.7 1.07-1.585 1.11-2.655Zm4.29 6.975c0 .29-.11.54-.33.75-.22.21-.475.315-.765.315a.976.976 0 0 1-.735-.315L14.28 26.32a5.756 5.756 0 0 1-3.345 1.035c-.8 0-1.565-.155-2.295-.465a5.73 5.73 0 0 1-1.875-1.26 6.304 6.304 0 0 1-1.26-1.875 5.419 5.419 0 0 1-.465-2.295 5.99 5.99 0 0 1 1.725-4.17c.54-.55 1.165-.97 1.875-1.26a6.432 6.432 0 0 1 2.295-.465c.82-.02 1.58.135 2.28.465.7.33 1.33.75 1.89 1.26.56.51.98 1.14 1.26 1.89s.435 1.51.465 2.28c0 1.23-.345 2.345-1.035 3.345l2.865 2.865c.21.21.315.465.315.765Z" fill="#29292A"/></g><defs><clipPath id="clip0_1_1089"><path fill="#fff" transform="matrix(1 0 0 -1 4.5 29.5)" d="M0 0h15v15H0z"/></clipPath></defs></svg>