<svg width="29" height="29" fill="none" xmlns="http://www.w3.org/2000/svg"><g clip-path="url('#clip0_1_27')"><path d="M28.154-1.654c-.168 0-.373.056-.616.168L1.442 9.574c-.485.224-.742.495-.77.812-.028.317.182.607.63.868l7.364 4.592a8.98 8.98 0 0 1 1.4 1.19c.486.495.878.957 1.176 1.386l4.424 7.28c.112.205.243.36.392.462.15.103.3.154.448.154.337 0 .626-.243.869-.728L28.518-.506c.131-.355.164-.635.098-.84-.065-.205-.219-.308-.462-.308ZM9.59 14.334 3.598 10.61l20.049-8.54-12.908 13.132a5.995 5.995 0 0 0-1.149-.868Zm6.748 9.072-3.556-5.852c-.223-.336-.485-.7-.784-1.092L24.962 3.274 16.34 23.406Z" fill="#8B5D33"/></g><defs><clipPath id="clip0_1_27"><path fill="#fff" transform="matrix(1 0 0 -1 .67 28.11)" d="M0 0h28v28H0z"/></clipPath></defs></svg>