<svg width="56" height="56" fill="none" xmlns="http://www.w3.org/2000/svg"><g clip-path="url('#clip0_1_1071')"><path d="M13.409 19.88H1.199c-.477 0-.816.202-1.018.605a1.286 1.286 0 0 0 0 1.21c.202.403.541.605 1.018.605h12.21c.476 0 .816-.202 1.017-.605a1.286 1.286 0 0 0 0-1.21c-.201-.403-.54-.605-1.017-.605Zm2.035 5.995h-9.9c-.477 0-.816.202-1.018.605a1.286 1.286 0 0 0 0 1.21c.202.403.541.605 1.018.605h9.9c.476 0 .816-.202 1.017-.605a1.286 1.286 0 0 0 0-1.21c-.201-.403-.54-.605-1.017-.605Zm1.98 5.995H9.889c-.477 0-.816.202-1.018.605a1.286 1.286 0 0 0 0 1.21c.202.403.541.605 1.018.605h7.535c.476 0 .816-.202 1.017-.605a1.286 1.286 0 0 0 0-1.21c-.201-.403-.54-.605-1.017-.605Zm35.75-17.435c-.33-.147-.715-.22-1.155-.22H18.304a71.654 71.654 0 0 1-1.43-4.07c-.11-.403-.367-.678-.77-.825-.257-.11-.624-.165-1.1-.165h-5.17c-.477 0-.816.202-1.018.605a1.286 1.286 0 0 0 0 1.21c.202.403.541.605 1.018.605h5.005l.33.99c.44 1.283.788 2.255 1.045 2.915 0 .293.073.532.22.715l.165.495c.036.037.055.073.055.11l.77 2.42 3.135 10.065c.366 1.1.623 1.925.77 2.475v.11c.073.22.146.385.22.495 0 .073.018.147.055.22.44 1.467.788 2.585 1.045 3.355l.055.22c-.074-.22-.092-.23-.055-.027.036.201.073.339.11.412.073.367.275.733.605 1.1.256.293.577.513.962.66.385.147.78.202 1.183.165h20.625c.476 0 .816-.202 1.017-.605a1.286 1.286 0 0 0 0-1.21c-.201-.403-.54-.605-1.017-.605-3.227.037-8.104.055-14.63.055h-6.16l-.165-.055c.073.037.082.028.027-.027-.055-.056-.064-.046-.027.027-.037-.037-.074-.055-.11-.055v-.165c0 .037 0 .037 0 0l-.055-.275-.55-1.87h21.34c.44.037.77.037.99 0 .88-.11 1.503-.477 1.87-1.1.146-.183.256-.477.33-.88l.275-.66c.256-.733.669-1.852 1.237-3.355l2.558-6.765 1.54-4.07c.22-.477.165-.953-.165-1.43a2.565 2.565 0 0 0-1.265-.99Zm-4.18 17.215c0-.037.018-.055.055-.055v-.055c-.037.037-.055.073-.055.11ZM51.249 19c-1.1 2.897-2.2 5.812-3.3 8.745l-1.1 2.97c-.11.22-.165.403-.165.55v.055h-22.88l-.11-.055v-.055a.454.454 0 0 0-.11-.275 40.764 40.764 0 0 0-.715-2.31l-1.1-3.575-2.695-8.415h33.11L51.249 19Zm-8.03 21.175c-.88-.037-1.632.275-2.255.935-.624.66-.954 1.42-.99 2.282-.037.862.275 1.605.935 2.228.66.623 1.411.953 2.255.99a2.822 2.822 0 0 0 2.172-.825c.605-.587.944-1.283 1.018-2.09a.687.687 0 0 0 .055-.303.687.687 0 0 0-.055-.302 3.034 3.034 0 0 0-1.018-2.035 3.282 3.282 0 0 0-2.117-.88Zm-.825 3.245c0-.257.082-.458.247-.605a.842.842 0 0 1 .578-.22c.22 0 .403.083.55.248.146.164.22.357.22.577 0 .33-.129.56-.385.688a.873.873 0 0 1-.798 0c-.275-.129-.412-.358-.412-.688Zm-15.565-3.245c-.844-.037-1.577.275-2.2.935-.624.66-.954 1.43-.99 2.31-.037.88.266 1.622.907 2.227a3.403 3.403 0 0 0 2.255.963c.862.037 1.595-.238 2.2-.825.605-.587.944-1.283 1.018-2.09l.055-.275-.055-.33A3.034 3.034 0 0 0 29 41.055c-.605-.55-1.329-.843-2.172-.88Zm-.825 3.245c0-.257.082-.458.247-.605a.878.878 0 0 1 .605-.22c.239 0 .431.083.578.248.146.164.22.357.22.577 0 .33-.138.56-.413.688a.932.932 0 0 1-.825 0c-.275-.129-.412-.358-.412-.688Z" fill="#2E2E2E"/></g><defs><clipPath id="clip0_1_1071"><path fill="#fff" transform="matrix(1 0 0 -1 .03 55.19)" d="M0 0h55v55H0z"/></clipPath></defs></svg>