<svg width="29" height="29" fill="none" xmlns="http://www.w3.org/2000/svg"><g clip-path="url('#clip0_1_20')"><path d="M28.474 12.402 15.342-1.374a.717.717 0 0 0-.588-.28c-.28 0-.495.093-.644.28L.922 12.402a.901.901 0 0 0-.252.616c0 .224.093.42.28.588a.918.918 0 0 0 .63.252.822.822 0 0 0 .602-.252l1.148-1.26v13.132a.9.9 0 0 0 .238.644c.159.168.369.252.63.252h6.132a.838.838 0 0 0 .616-.252.872.872 0 0 0 .252-.644l.056-8.736h6.944v8.736c0 .261.084.476.252.644a.838.838 0 0 0 .616.252h6.132c.261 0 .471-.084.63-.252a.9.9 0 0 0 .238-.644V12.346l1.148 1.26a.973.973 0 0 0 .672.28.919.919 0 0 0 .588-.28.806.806 0 0 0 .252-.588.901.901 0 0 0-.252-.616Zm-4.144-1.624V24.61h-4.368v-8.764a.838.838 0 0 0-.252-.616.872.872 0 0 0-.644-.252h-8.68c-.261 0-.471.084-.63.252a.864.864 0 0 0-.238.616l-.056 8.764H5.066v-14L14.754.502l9.576 10.052v.224Z" fill="#8B5D33"/></g><defs><clipPath id="clip0_1_20"><path fill="#fff" transform="matrix(1 0 0 -1 .67 28.11)" d="M0 0h28v28H0z"/></clipPath></defs></svg>