<svg width="29" height="29" fill="none" xmlns="http://www.w3.org/2000/svg"><g clip-path="url('#clip0_1_41')"><path d="M6.339 22.478a2.734 2.734 0 0 1-1.036 1.372c-.485.336-1.465.532-2.94.588.037-1.381.2-2.305.49-2.772.29-.467.723-.821 1.302-1.064.243-.093.504-.22.784-.378.28-.159.588-.36.924-.602L4.799 18.25a9.515 9.515 0 0 1-.728.476l-.672.364c-.97.392-1.68.999-2.128 1.82-.448.821-.672 2.287-.672 4.396v.896h.868c2.24 0 3.78-.247 4.62-.742a4.11 4.11 0 0 0 1.792-2.114l.252-.532c.075-.187.187-.41.336-.672l-1.316-1.148a4.702 4.702 0 0 0-.448.756l-.364.728Zm13.524-19.04c-.99.019-1.815.364-2.478 1.036-.663.672-1.003 1.493-1.022 2.464.019 1.008.36 1.848 1.022 2.52.663.672 1.489 1.017 2.478 1.036 1.008-.019 1.848-.364 2.52-1.036.672-.672 1.017-1.512 1.036-2.52-.019-.97-.364-1.792-1.036-2.464-.672-.672-1.512-1.017-2.52-1.036Zm0 5.292a1.778 1.778 0 0 1-1.232-.532 1.693 1.693 0 0 1-.504-1.246c0-.495.168-.905.504-1.232.336-.327.751-.49 1.246-.49s.91.163 1.246.49c.336.327.504.737.504 1.232s-.168.91-.504 1.246c-.336.336-.756.513-1.26.532Zm8.736-9.604a1.153 1.153 0 0 0-.28-.588.69.69 0 0 0-.532-.252c-.112-.056-1.125-.047-3.038.028-1.913.075-4.111.523-6.594 1.344-.84.336-1.624.77-2.352 1.302a12.207 12.207 0 0 0-2.072 1.946c-.541.653-1.083 1.489-1.624 2.506a102.716 102.716 0 0 0-1.54 3.01l-.56 1.092a8.243 8.243 0 0 1-.504.924H4.659c-.28 0-.504.093-.672.28l-3.22 3.5a.977.977 0 0 0-.196.378.698.698 0 0 0 .028.434c.112.336.327.541.644.616l5.208 1.204 1.904 2.128 1.988 2.184 1.092 4.536a.92.92 0 0 0 .532.616c.13.037.224.056.28.056a.894.894 0 0 0 .616-.224l3.22-3.248a.998.998 0 0 0 .238-.28.71.71 0 0 0 .098-.364v-4.536c.187-.15.457-.317.812-.504l1.092-.588c1.045-.56 2.165-1.153 3.36-1.778 1.195-.625 2.137-1.218 2.828-1.778.821-.747 1.447-1.456 1.876-2.128.43-.672.784-1.41 1.064-2.212.69-2.11 1.064-4.172 1.12-6.188.056-2.016.065-3.155.028-3.416Zm-2.8 9.016a8.496 8.496 0 0 1-.896 1.848c-.355.541-.887 1.13-1.596 1.764-.597.504-1.484 1.055-2.66 1.652l-3.192 1.68-1.624.924c-.41.243-.705.443-.882.602-.177.159-.275.378-.294.658v4.592l-1.848 2.044-.84-3.36a.345.345 0 0 0-.056-.196l-.112-.168-2.66-2.94-1.596-1.764c-.112-.187-.261-.28-.448-.28l-4.032-.924 1.96-2.072h4.984a.91.91 0 0 0 .77-.476c.177-.299.387-.663.63-1.092l.728-1.4c.448-.915.924-1.862 1.428-2.842.504-.98.999-1.76 1.484-2.338.56-.69 1.143-1.255 1.75-1.694a8.023 8.023 0 0 1 2.002-1.05C20.46.731 22.024.363 23.489.204c1.465-.159 2.59-.229 3.374-.21.056.896.023 2.114-.098 3.654a17.251 17.251 0 0 1-.966 4.494Z" fill="#8B5D33"/></g><defs><clipPath id="clip0_1_41"><path fill="#fff" transform="matrix(1 0 0 -1 .55 28.05)" d="M0 0h28v28H0z"/></clipPath></defs></svg>