<svg width="9" height="13" fill="none" xmlns="http://www.w3.org/2000/svg"><g clip-path="url('#clip0_1_1103')"><path d="M7.242 6.108 3.93 9.412a.26.26 0 0 1-.2.088.259.259 0 0 1-.2-.088L.218 6.108A.284.284 0 0 1 .13 5.9c0-.08.03-.147.088-.2l.736-.736a.284.284 0 0 1 .208-.088c.08 0 .147.03.2.088L3.73 7.332l2.368-2.368a.276.276 0 0 1 .2-.088c.075 0 .144.03.208.088l.736.736a.276.276 0 0 1 .088.2c0 .075-.03.144-.088.208Z" fill="#2E2E2E"/></g><defs><clipPath id="clip0_1_1103"><path fill="#fff" transform="matrix(1 0 0 -1 .13 12.5)" d="M0 0h8v12H0z"/></clipPath></defs></svg>