<svg width="29" height="29" fill="none" xmlns="http://www.w3.org/2000/svg"><g clip-path="url('#clip0_1_34')"><path d="M22.874 2.294a1.82 1.82 0 0 0-1.204-.448h-.868c-.373 0-.877-.023-1.512-.07a14.423 14.423 0 0 1-1.988-.294c-.915-.28-1.783-.751-2.604-1.414a144.91 144.91 0 0 0-1.736-1.386 1.579 1.579 0 0 0-.966-.336c-.345 0-.658.112-.938.336-.093.112-.555.523-1.386 1.232a8.033 8.033 0 0 1-2.87 1.568c-.672.15-1.33.247-1.974.294-.644.047-1.153.07-1.526.07h-.896c-.448 0-.85.15-1.204.448-.15.168-.275.364-.378.588a1.726 1.726 0 0 0-.154.728v4.368c.43 7.821 2.207 12.89 5.334 15.204 3.127 2.315 5.026 3.36 5.698 3.136l.28.056.336-.056c.653.224 2.557-.821 5.712-3.136 3.155-2.315 4.947-7.383 5.376-15.204V3.61c0-.261-.051-.504-.154-.728a2.356 2.356 0 0 0-.378-.588ZM21.67 7.978c-.41 7.205-2.025 11.84-4.844 13.902-2.819 2.063-4.433 2.973-4.844 2.73-.392.243-1.988-.667-4.788-2.73-2.8-2.063-4.396-6.697-4.788-13.902V3.61h.896c.448 0 1.022-.028 1.722-.084.7-.056 1.433-.177 2.198-.364 1.25-.392 2.343-.975 3.276-1.75C11.431.637 11.926.203 11.982.11c.056.093.57.527 1.54 1.302.97.775 2.1 1.358 3.388 1.75.747.187 1.465.308 2.156.364.69.056 1.27.084 1.736.084h.868v4.368Zm-5.908-.168a.983.983 0 0 0-.63-.224.983.983 0 0 0-.63.224l-2.464 2.464L9.574 7.81a1.099 1.099 0 0 0-.658-.224.777.777 0 0 0-.588.252.864.864 0 0 0-.238.616c0 .243.075.448.224.616l2.464 2.464-2.464 2.464a.983.983 0 0 0-.224.63c0 .233.08.439.238.616a.758.758 0 0 0 .588.266c.233 0 .453-.084.658-.252l2.464-2.464 2.464 2.464a.918.918 0 0 0 .63.252.845.845 0 0 0 .616-.266.845.845 0 0 0 .266-.616.918.918 0 0 0-.252-.63l-2.464-2.464 2.464-2.464a.838.838 0 0 0 .252-.616.934.934 0 0 0-.252-.644Z" fill="#8B5D33"/></g><defs><clipPath id="clip0_1_34"><path fill="#fff" transform="matrix(1 0 0 -1 .67 28.11)" d="M0 0h28v28H0z"/></clipPath></defs></svg>